<?xml version="1.0" standalone="no"?>
<!DOCTYPE svg PUBLIC "-//W3C//DTD SVG 1.1//EN" "http://www.w3.org/Graphics/SVG/1.1/DTD/svg11.dtd" >
<svg xmlns="http://www.w3.org/2000/svg" xmlns:xlink="http://www.w3.org/1999/xlink" version="1.1">
<metadata></metadata>
<defs>
<font id="audreyregular" horiz-adv-x="2048" >
<font-face units-per-em="2048" ascent="1434" descent="-614" />
<missing-glyph horiz-adv-x="540" />
<glyph horiz-adv-x="0" />
<glyph horiz-adv-x="682" />
<glyph unicode="&#x9;" />
<glyph unicode="&#xa;" />
<glyph unicode="&#xd;" />
<glyph />
<glyph />
<glyph />
<glyph />
<glyph />
<glyph />
<glyph />
<glyph unicode=" "  horiz-adv-x="540" />
<glyph unicode="&#x09;" horiz-adv-x="540" />
<glyph unicode="&#xa0;" horiz-adv-x="540" />
<glyph unicode="!" horiz-adv-x="636" d="M195 74q0 48 32 80q37 32 78 32q48 0 80 -32q33 -33 33 -80t-33 -80q-38 -33 -80 -33q-48 0 -78 35q-32 32 -32 78zM205 1401h207q-11 -156 -21 -262l-61 -744h-45l-62 744q-13 162 -18 262z" />
<glyph unicode="&#x22;" horiz-adv-x="1232" d="M178 836l191 614h131l-248 -614h-74zM692 836l191 614h131l-248 -614h-74z" />
<glyph unicode="#" horiz-adv-x="1566" d="M164 369l26 69l1203 49l-39 -118h-1190zM270 856l27 68l1202 51l-39 -119h-1190zM276 -47l494 1427h127l-549 -1427h-72zM813 -47l494 1427h127l-549 -1427h-72z" />
<glyph unicode="$" horiz-adv-x="901" d="M152 127l34 39q51 -72 95.5 -114.5t95.5 -65.5v583q-46 29 -66 45q-67 56 -102 138q-36 84 -25 166q12 130 113 208q41 30 80 43v117h51v-102q52 12 111 6q47 -5 98 -25v121h53v-143q64 -36 123 -115l-41 -33q-15 27 -35 47q-18 23 -47 45v-487q69 -43 105 -70 q61 -45 102 -131q34 -79 25 -180q-18 -158 -134 -246q-39 -29 -98 -49v-112h-53v98q-68 -13 -141 -4q-26 3 -68 16v-110h-51v129q-70 32 -129.5 80.5t-95.5 105.5zM311 979q-9 -85 49 -152q8 -8 17 -14v289q-57 -51 -66 -123zM428 -35q52 -11 57 -12q80 -14 152 16v439 q-35 27 -115 71q-7 4 -94 58v-572zM428 766q69 -51 147 -96q30 -16 62 -37v485q-51 24 -92 27q-66 8 -117 -10v-369zM690 0l4 4q79 64 88 158q12 90 -45 162q-12 14 -47 45v-369z" />
<glyph unicode="%" horiz-adv-x="1634" d="M92 1012q0 171 68 274q37 56 79 81.5t99 25.5q108 0 176 -107q70 -104 70 -274q0 -167 -68 -273q-70 -106 -178 -106q-57 0 -99 25t-79 79q-68 106 -68 275zM190 1012q0 -102 15.5 -175t36.5 -104q39 -57 96 -57q36 0 59.5 15.5t40.5 51.5q45 116 45 269q0 200 -51 280 q-39 56 -94 56q-57 0 -96 -56q-21 -32 -36.5 -104t-15.5 -176zM481 0l752 1389h59l-747 -1389h-64zM1155 383q0 173 70 274q68 107 176 107q57 0 99 -25.5t79 -81.5q70 -109 70 -274q0 -163 -70 -272q-68 -107 -178 -107q-107 0 -176 105q-70 104 -70 274zM1255 383 q0 -102 15.5 -175t36.5 -104q39 -57 94 -57q71 0 100 68q45 100 45 268q0 207 -51 281q-35 55 -94 55q-56 0 -94 -55q-21 -32 -36.5 -104.5t-15.5 -176.5z" />
<glyph unicode="&#x26;" horiz-adv-x="1097" d="M-2 356q0 134 70 222q86 108 264 225q-73 103 -110.5 174.5t-37.5 134.5q0 106 84 193q83 86 211 86q122 0 203 -64q80 -63 80 -168q0 -178 -266 -313l372 -492l205 221h70l2 -2l-246 -264l260 -346h-207l-166 225l-7.5 -7.5l-7.5 -7.5l-7 -7l-19 -21 q-182 -176 -362 -176q-63 0 -133 27q-73 27 -129 80q-53 51 -92 123q-34 72 -31 157zM147 430q0 -150 86 -246q101 -110 240 -110q64 0 132.5 35.5t125.5 97.5l25 26l-394 527q-88 -55 -155 -156q-60 -89 -60 -174zM317 1165q0 -32 23 -79.5t48.5 -86t78.5 -112.5 q184 109 184 264q0 41 -12 76q-8 32 -33 61q-27 27 -55 39q-30 12 -68 12q-78 0 -121 -49q-45 -48 -45 -125z" />
<glyph unicode="'" horiz-adv-x="716" d="M178 815l191 615h131l-248 -615h-74z" />
<glyph unicode="(" horiz-adv-x="724" d="M186 371q0 384 267 721h55q-21 -25 -48.5 -74.5t-59 -133t-55 -182.5t-31.5 -227t5.5 -260.5t63 -289.5t133.5 -308h-55q-275 342 -275 754z" />
<glyph unicode=")" horiz-adv-x="827" d="M272 1092h56q274 -338 274 -752q0 -384 -266 -723h-53q21 25 48 74.5t58 133.5t54.5 182.5t31 226.5t-6 260.5t-63 289.5t-133.5 308z" />
<glyph unicode="*" horiz-adv-x="1431" d="M193 879q78 27 110 41l266 92l-266 94q-45 15 -110 41l106 184q11 -9 46 -38.5t44 -37.5l213 -184l-51 275q-1 5 -9 49.5t-12 66.5h213q-14 -85 -20 -116l-51 -273l213 182q9 7 43 35.5t49 40.5l106 -184q-55 -22 -112 -41l-264 -94l264 -94q9 -3 52 -18t60 -21 l-106 -187q-15 12 -49 40.5t-43 35.5l-213 182l51 -276q12 -45 20 -121h-213q3 27 11.5 70t9.5 51l53 278l-215 -182q-9 -9 -90 -78z" />
<glyph unicode="+" horiz-adv-x="962" d="M92 600v86h406v418h98v-418h405v-86h-405v-418h-98v418h-406z" />
<glyph unicode="," horiz-adv-x="759" d="M176 -430l209 584h145l-272 -584h-82z" />
<glyph unicode="-" horiz-adv-x="913" d="M205 356v136h467v-136h-467z" />
<glyph unicode="." horiz-adv-x="671" d="M199 78q0 46 32 78t80 32t80 -32q33 -29 33 -78q0 -51 -33 -80q-33 -33 -80 -33t-80 33q-32 37 -32 80z" />
<glyph unicode="/" horiz-adv-x="1157" d="M119 -25l706 1450h213l-704 -1450h-215z" />
<glyph unicode="0" horiz-adv-x="1390" d="M217 737q0 332 133 533q71 106 154 155.5t190 49.5q109 0 192 -49.5t154 -155.5q134 -206 134 -533t-134 -530q-70 -107 -153.5 -157t-192.5 -50q-107 0 -190 49.5t-154 155.5q-133 204 -133 532zM412 737q0 -199 29 -339t69 -203q38 -57 82 -83t102 -26q72 0 118 30 t77 99q88 192 88 522q0 200 -29 339.5t-69 203.5q-70 109 -185 109q-112 0 -182 -109q-41 -61 -70.5 -201.5t-29.5 -341.5z" />
<glyph unicode="1" horiz-adv-x="1390" d="M522 1413v49v13h344v-50v-1425h-12h-147h-50v1413h-77h-58z" />
<glyph unicode="2" horiz-adv-x="1390" d="M238 0v72v2l2 28q7 5 36.5 26t42.5 31t41.5 31.5t48.5 39t48.5 42t56.5 52.5t57 59q195 201 289 360q88 154 88 308q0 182 -88 270q-92 86 -219 86q-107 0 -199 -80q-51 -45 -82 -98l-2 -6l-73 34l4 7q45 71 102 112q138 99 303 99q177 0 316 -103q141 -105 141 -307 q0 -129 -61 -242q-62 -112 -304 -348q-54 -52 -109.5 -99.5t-117.5 -97t-90 -73.5h664v-47v-158h-9h-202h-521h-163z" />
<glyph unicode="3" horiz-adv-x="1390" d="M305 1300l10 15q28 35 58 61q111 99 299 99q89 0 149.5 -19t114.5 -65q100 -83 100 -189q0 -94 -69 -172l-6 -6q-81 -96 -189 -166l-27 -18q84 0 139 -27.5t103 -83.5q98 -110 98 -274q0 -201 -145 -328q-76 -67 -157 -97t-187 -30q-95 0 -184 29l-27 10l84 80l16 -8 q0 -2 4 -2q53 -27 103 -27q134 0 215 90q82 88 82 287q0 155 -62 229q-59 74 -139 74q-44 0 -102 -39l-17 -12l-57 80l14 10q5 3 15.5 10t15.5 10q172 111 229 183q54 73 54 178q0 100 -56 153q-54 54 -143 54q-93 0 -164 -56q-41 -33 -59 -76l-8 -20z" />
<glyph unicode="4" horiz-adv-x="1390" d="M176 487v76v2l2 2l656 908h79v-238v-674h301v-76h-14h-287v-487h-14h-158h-53v487h-162h-350zM260 563h428v598z" />
<glyph unicode="5" horiz-adv-x="1390" d="M307 764v510v141v12v48h639v-201h-22h-13h-125h-409v-412q129 129 274 129q178 0 307 -135q125 -134 125 -332q0 -227 -141 -374q-141 -150 -397 -150q-104 0 -189 29l-10 4l70 65l4 -4q50 -35 129 -35q143 0 237 107q99 108 99 350q0 219 -80 311q-82 91 -189 91 q-144 0 -237 -152l-2 -2h-4h-66z" />
<glyph unicode="6" horiz-adv-x="1390" d="M225 676q0 336 156 567q160 232 426 232q39 0 108 -15l21 -4l-33 -86l-16 6q-31 10 -109 10q-164 0 -246 -137q-83 -142 -83 -432v-12q66 63 118 88q80 41 166 41q189 0 322 -133q67 -64 88.5 -144.5t21.5 -187.5q0 -102 -20.5 -181.5t-83.5 -146.5q-132 -141 -334 -141 q-175 0 -291 104q-116 101 -166 256q-45 145 -45 316zM444 483q0 -90 29 -196q31 -96 96 -150q65 -53 146 -53q124 0 190 96q66 104 66 303q0 122 -27 201q-21 66 -88 115q-60 45 -141 45q-110 0 -189 -76q-82 -76 -82 -285z" />
<glyph unicode="7" horiz-adv-x="1390" d="M281 1270v143v12v50h829l-25 -68q-67 -191 -274 -768t-233 -635l-3 -4h-4h-82h-8l2 8q19 51 235 635.5t232 626.5h-415h-27h-227z" />
<glyph unicode="8" horiz-adv-x="1390" d="M258 395q0 146 92 252q75 87 182 121q-73 32 -145 113q-84 96 -84 229q0 159 115 262q114 103 276 103q149 0 271 -99q125 -101 125 -266q0 -131 -78 -227q-64 -76 -154 -113q85 -24 166 -102q109 -106 109 -267q0 -188 -134 -295q-129 -106 -305 -106q-180 0 -307 113 q-129 114 -129 282zM453 410q0 -114 20 -181q15 -60 76 -104q55 -43 139 -43q109 0 178 63q70 61 70 252q0 194 -70 258q-69 66 -182 66q-116 0 -172 -80q-59 -83 -59 -231zM487 1130q0 -161 52 -245q49 -78 145 -78q109 0 162 74q55 76 55 231q0 144 -57 213 q-58 70 -154 70q-85 0 -143 -64q-60 -66 -60 -201z" />
<glyph unicode="9" horiz-adv-x="1390" d="M219 1006q0 204 117 327q130 142 334 142q174 0 291 -105q116 -101 163 -256q47 -152 47 -315q0 -335 -155 -566q-158 -233 -428 -233q-121 0 -213 47l-23 12l88 82l13 -16q14 -17 45.5 -26t55 -10t64.5 -1q165 0 244 137q86 142 86 432v13q-65 -62 -119 -88 q-80 -41 -167 -41q-186 0 -322 133q-121 121 -121 332zM414 991q0 -91 37 -200q24 -67 90 -115q60 -45 141 -45q106 0 188 76q80 77 80 284q0 94 -28 197q-25 89 -95 149q-66 54 -145 54q-124 0 -190 -97q-78 -112 -78 -303z" />
<glyph unicode=":" horiz-adv-x="649" d="M199 78q0 46 32 78t80 32t80 -32q33 -29 33 -78q0 -51 -33 -80q-33 -33 -80 -33t-80 33q-32 37 -32 80zM199 803q0 41 32 78q30 34 80 34q43 0 80 -32q33 -33 33 -80t-33 -80t-80 -33t-80 33q-32 37 -32 80z" />
<glyph unicode=";" horiz-adv-x="763" d="M172 -442h82l274 583h-145zM346 803q0 40 33 78q30 34 80 34q43 0 80 -32q32 -32 32 -80t-32 -80q-33 -33 -80 -33t-80 33q-33 38 -33 80z" />
<glyph unicode="&#x3c;" horiz-adv-x="540" />
<glyph unicode="=" horiz-adv-x="2836" d="M1561 492v98h909v-98h-909zM1561 823v99h909v-99h-909z" />
<glyph unicode="&#x3e;" horiz-adv-x="540" />
<glyph unicode="?" horiz-adv-x="927" d="M166 82q0 42 33 80q33 33 80 33q46 0 79 -33t33 -80t-33 -80t-79 -33q-48 0 -80 35q-33 38 -33 78zM195 1374q75 37 176 37q176 0 270 -113q86 -102 86 -278q0 -151 -70 -229q-84 -93 -200 -93q-48 0 -74.5 9t-56.5 38l-25 -348h-47l-12 398h94q30 -33 80 -33 q80 0 121 80t41 239q0 148 -66 217q-65 68 -150 68q-79 0 -126 -33z" />
<glyph unicode="@" horiz-adv-x="550" />
<glyph unicode="A" horiz-adv-x="1619" d="M147 0l611 1475h43l626 -1475h-231l-111 270l-110 271h-543l-207 -541h-78zM446 590h510l-258 618z" />
<glyph unicode="B" horiz-adv-x="1380" d="M188 0v1475h297q600 0 600 -347q0 -144 -104 -229q-104 -87 -309 -117q247 -18 370 -123q121 -109 121 -264q0 -134 -82 -239q-81 -97 -211 -127q-125 -29 -342 -29h-340zM399 61h187q184 0 258 74q86 89 86 266q0 180 -96 267q-100 86 -342 86q-14 0 -47.5 -1t-45.5 -1 v-691zM399 803h56q231 0 317 74q84 72 84 237q0 117 -33 176q-32 60 -100 96q-63 35 -227 35q-72 0 -97 -2v-616z" />
<glyph unicode="C" horiz-adv-x="1345" d="M152 711q0 213 90 397q88 188 252 276q163 91 354 91q157 0 289 -66q125 -64 190 -141v-6l-41 -39q-31 47 -80 86q-144 112 -327 112q-225 0 -357 -182q-131 -180 -131 -518q0 -319 144 -492q144 -170 358 -170q112 0 233 56q99 47 162 143l41 -43q-191 -215 -479 -215 q-306 0 -504 195q-194 197 -194 516z" />
<glyph unicode="D" horiz-adv-x="1671" d="M186 0v1475h406q326 0 506 -101q184 -100 270 -268q90 -172 90 -391q0 -162 -49 -293q-52 -138 -133 -219q-82 -88 -197 -135q-113 -47 -211 -56q-99 -12 -280 -12h-402zM397 49h226q189 0 313 53q127 54 205 205q84 156 84 391q0 186 -49 332q-45 140 -138 236 q-87 90 -196 125q-118 32 -279 32q-92 0 -166 -6v-1368z" />
<glyph unicode="E" horiz-adv-x="1173" d="M182 0v379v102v88v541v365h860v-50h-452h-197v-317v-43v-264h150h276v-51h-270h-156v-181v-32v-56v-102v-328h193h452v-51h-856z" />
<glyph unicode="F" horiz-adv-x="987" d="M170 0v373v104v88v541v369h860v-50h-452h-195v-321v-43v-260h147h279v-51h-272h-154v-185v-35v-53v-102v-375h-213z" />
<glyph unicode="G" horiz-adv-x="1622" d="M150 711q0 305 192 534q193 230 522 230q286 0 467 -205v-6l-47 -50q-34 49 -70 80q-135 129 -327 129q-201 0 -350 -149q-150 -150 -150 -529q0 -376 145 -536q143 -158 357 -158q110 0 196 45q89 44 119 109q31 58 31 162v262h205v-234q0 -67 -27.5 -126.5 t-77.5 -100.5q-92 -81 -145 -100q-183 -68 -332 -68q-304 0 -508 201q-200 200 -200 510z" />
<glyph unicode="H" horiz-adv-x="1656" d="M205 0v1475h213v-674h786v674h213v-1475h-213v750h-786v-750h-213z" />
<glyph unicode="I" horiz-adv-x="657" d="M205 0v383v725v367h213v-367v-725v-383h-213z" />
<glyph unicode="J" horiz-adv-x="1001" d="M176 41l43 31q33 -15 59.5 -23t37.5 -9l10 -1q97 0 166 63t81 148q19 105 19 280v762v183h168v-183v-762q0 -128 -15 -227q-8 -71 -67 -149q-54 -75 -141 -115q-85 -39 -207 -39q-52 0 -83 9.5t-71 31.5z" />
<glyph unicode="K" horiz-adv-x="1632" d="M147 0v379v725v371h213v-371v-383l445 405q1 1 -2 3v1l381 345h71l-272 -256q-14 -13 -44 -42t-46 -44l-33 -37l-242 -219l549 -558q7 -8 22.5 -20.5t20.5 -17.5l-2 -5q1 -1 1 -3t1 -3l271 -270h-293l-227 244v-2q-12 12 -37.5 38.5t-40.5 41.5l-422 419l-101 -92v-270 v-379h-213z" />
<glyph unicode="L" horiz-adv-x="1284" d="M154 0v379v725v371h213v-1426h813v-49h-1026z" />
<glyph unicode="M" horiz-adv-x="1931" d="M205 0v475v643v357h205l540 -1223l539 1223h203v-357v-725v-393h-213v393v940l-588 -1333h-51l-586 1333v-864v-469h-49z" />
<glyph unicode="N" horiz-adv-x="1562" d="M203 37v321v764v353h221l838 -1121v863v258h61v-275v-1200h-39l-1034 1358v-1000v-321h-47z" />
<glyph unicode="O" horiz-adv-x="1835" d="M168 748q0 328 221 528q115 104 228.5 151.5t273.5 47.5t275.5 -47t230.5 -150q223 -195 223 -539q0 -330 -213 -534q-112 -107 -228.5 -156t-285.5 -49q-163 0 -279 49t-229 156q-217 205 -217 543zM410 739q0 -341 135 -514q73 -91 152.5 -131.5t209.5 -40.5 q119 0 202.5 41.5t154.5 130.5q65 81 89.5 204t24.5 308q0 183 -23.5 304.5t-88.5 203.5q-70 91 -158.5 133.5t-216.5 42.5q-122 0 -197.5 -40t-148.5 -132q-135 -173 -135 -510z" />
<glyph unicode="P" horiz-adv-x="1265" d="M170 0v369v716v390h299q216 0 350 -41q115 -33 201 -129q78 -93 78 -228q0 -118 -54 -209q-54 -88 -153 -135q-48 -23 -130.5 -31t-221.5 -8h-158v-325q-1 -11 -1 -79v-37q0 -30 1 -30v-223h-211zM381 743h102q142 0 203 19q83 25 131 100q51 77 51 199q0 184 -88 266 q-89 86 -288 86q-61 0 -111 -4v-666z" />
<glyph unicode="Q" horiz-adv-x="1812" d="M154 743q0 331 219 529q114 103 227.5 150.5t271.5 47.5q160 0 274 -46.5t232 -149.5q221 -197 221 -537q0 -328 -213 -532q-119 -116 -245 -162q91 -38 170.5 -100.5t165.5 -163.5l-103 -27q-67 99 -150 165.5t-165 100.5q-83 -18 -185 -18q-163 0 -277 49t-228 156 q-215 203 -215 538zM391 737q0 -339 137 -514q90 -113 201 -149q18 6 19 6q34 8 66 12q23 2 47 2h21q36 -2 52.5 -3t55.5 -6t42 -5q2 0 4.5 -1t3.5 -1q120 41 203 145q67 81 92 204t25 308q0 179 -25 301t-90 205q-69 90 -157.5 133t-215.5 43q-83 0 -145.5 -20 t-106.5 -55.5t-92 -96.5q-137 -175 -137 -508z" />
<glyph unicode="R" horiz-adv-x="1466" d="M178 0v391v713v371h322q227 0 338 -35q138 -40 211 -119q79 -88 79 -211q0 -146 -104 -244q-121 -114 -309 -139q1 -1 18.5 -9t22 -10.5t23 -12.5t27 -16t27 -19t31 -24.5t32 -29.5t36 -36t36.5 -42t40 -51q12 -17 33.5 -50.5t85.5 -156.5t124 -270h-168q-5 19 -19 60 t-43.5 108t-67 136.5t-91.5 141.5t-114 127.5t-137.5 91t-159.5 35.5h-64v-309v-391h-209zM387 750h172q20 0 43 4t35.5 7t38.5 11t31 10q50 14 102 66q40 37 61 96q23 59 23 146q0 150 -76 241q-69 82 -338 82h-92v-663z" />
<glyph unicode="S" horiz-adv-x="1243" d="M150 254l38 43q84 -119 158 -172t184 -72q30 -4 57 -5q107 0 183 65q91 76 100 180q2 17 2 33q0 85 -53 151q-64 76 -246 178q-157 90 -241 156q-78 63 -119 156q-30 72 -30 145q0 22 3 45q15 152 131 240q95 73 227 73q23 0 48 -2q86 -9 164 -47q74 -36 149 -137 l-45 -37q-17 26 -41 53q-88 105 -221 117q-24 3 -46 3q-91 0 -144 -50q-67 -61 -76 -143q-1 -12 -1 -23q0 -83 58 -149q62 -73 246 -183q171 -98 248 -157q77 -56 118 -150q30 -70 30 -154q0 -26 -3 -53q-18 -177 -151 -280q-109 -82 -265 -82q-33 0 -69 4 q-103 11 -218.5 84t-174.5 170z" />
<glyph unicode="T" horiz-adv-x="1462" d="M131 1425l2 50h1434v-50h-373h-242v-1036v-389h-213v389v1036h-215h-393z" />
<glyph unicode="U" horiz-adv-x="1605" d="M199 518l10 150v452v355h209v-355v-458v-56.5v-54.5v-46.5t0.5 -46t1.5 -38.5t2.5 -37.5t3 -30t4.5 -28.5q25 -108 117 -174q101 -76 272 -76q136 0 244 51q113 52 164 123q58 85 69 155q21 134 21 248v496v328h51v-347v-485q0 -142 -22 -276q-14 -81 -93 -177 q-68 -87 -194 -139q-122 -51 -289 -51q-192 0 -330 66q-133 68 -188 172q-55 98 -55 233q0 23 2 47z" />
<glyph unicode="V" horiz-adv-x="1662" d="M150 1475h215l127 -281l413 -958l332 796q33 77 49 127l125 316h68l-193 -457l-428 -1018h-67l-496 1141l-16 30q-4 10 -14 34.5t-15 37.5q-9 28 -29 64z" />
<glyph unicode="W" horiz-adv-x="2455" d="M150 1475h215l127 -281l413 -961q111 265 197.5 475t117.5 288l31 77h86l361 -837l332 790q30 73 49 129l123 320h67l-192 -457l-428 -1018h-66l-369 850l-356 -850h-67l-496 1139l-16 28q-4 10 -14 34.5t-15 37.5q-14 40 -29 64z" />
<glyph unicode="X" horiz-adv-x="1818" d="M139 1475h285l227 -291l4 2l267 -322l243 305q92 115 95 119l149 187h72l-228 -283l-63 -74l-234 -295l383 -465q35 -42 162 -188l146 -170h-299l-164 213q-53 74 -97 127l-264 324l-231 -281q-36 -43 -76 -98l-223 -285h-76l238 295q63 83 88 111l245 299l-387 466 l-127 150q-2 3 -12.5 14.5t-15.5 18.5z" />
<glyph unicode="Y" horiz-adv-x="1642" d="M156 1475h268l479 -830l477 830h90l-538 -889v-586h-211v571z" />
<glyph unicode="Z" horiz-adv-x="1325" d="M0 0v43l942 1382h-457h-383v50h1100v-56l-946 -1370h446h484v-49h-1186z" />
<glyph unicode="[" horiz-adv-x="1792" d="M453 1092h30h-30zM1153 -336v1364v45h2h133h166v-45h-166v-1364h166v-47h-166h-133h-2v47z" />
<glyph unicode="\" horiz-adv-x="1275" d="M184 1403h211l701 -1440h-213z" />
<glyph unicode="]" horiz-adv-x="757" d="M195 -336h165l-2 1364h-163v45h163h136h2v-45v-1364v-47h-2h-134h-165v47z" />
<glyph unicode="^" horiz-adv-x="2471" d="M610 1475h43h-43zM1534 713l475 762h12l488 -762h-230l-335 506l-332 -506h-78z" />
<glyph unicode="_" />
<glyph unicode="`" />
<glyph unicode="a" horiz-adv-x="1030" d="M182 154q0 49 15.5 81t58.5 66q90 69 252 135l141 58v36q0 73 -10 111q-12 36 -53 61q-41 27 -109 27q-96 0 -155 -41q-15 15 -31 29q84 53 205 53q117 0 178 -37q67 -39 84 -82q20 -44 20 -141v-299v-231h-129v30v99q-99 -69 -166 -97q-68 -32 -133 -32q-64 0 -116 60.5 t-52 113.5zM315 172q0 -56 31 -92q30 -35 78 -35q38 0 98 29q53 26 127 84v293l-100 -39q-234 -94 -234 -240z" />
<glyph unicode="b" horiz-adv-x="1136" d="M178 -33v1266h109h2h18v-584q66 59 129 86q64 27 131 27q158 0 260 -111q91 -99 91 -291q0 -89 -21.5 -154.5t-71.5 -123.5q-106 -115 -270 -115q-81 0 -143 35q-64 36 -105 100v-135h-129zM307 150q12 -38 88 -95q54 -45 131 -45q118 0 185 94q69 97 69 275 q0 164 -65 250t-170 86q-58 0 -121 -29q-60 -31 -117 -88v-448z" />
<glyph unicode="c" horiz-adv-x="944" d="M172 356q0 175 107 285q110 107 266 107q134 0 215 -66l-27 -27q-61 45 -149 45q-133 0 -197 -98q-65 -97 -65 -246q0 -146 65 -243q65 -99 197 -99q92 0 149 45l27 -26q-81 -66 -215 -66q-156 0 -266 107q-107 110 -107 282z" />
<glyph unicode="d" horiz-adv-x="1165" d="M178 360q0 191 92 291q102 111 260 111q68 0 132 -27t126 -86v584h19h2h109v-1266h-130v135q-39 -64 -102 -100q-62 -35 -143 -35q-165 0 -271 115q-51 57 -72.5 122.5t-21.5 155.5zM317 379q0 -181 70 -275q67 -94 184 -94q77 0 131 45q74 55 86 95v448q-55 58 -116 88 q-63 29 -119 29q-107 0 -172 -86q-64 -85 -64 -250z" />
<glyph unicode="e" horiz-adv-x="1015" d="M174 356q0 174 102 291q103 115 256 115q148 0 224 -88q73 -79 73 -191h-501q-4 -70 -4 -77q0 -195 61 -293q60 -97 180 -97q139 0 209 107l31 -31q-30 -44 -80 -74q-85 -51 -184 -51q-93 0 -179 47q-84 51 -135 133q-53 86 -53 209zM330 520h391q0 15 -4.5 37t-18 52 t-34 54.5t-57 42t-81.5 17.5q-83 0 -131 -50.5t-65 -152.5z" />
<glyph unicode="f" horiz-adv-x="821" d="M172 711v41h141v69q0 111 9 176q9 60 53 129q46 68 106 103q67 36 131 36q11 0 23 -1q45 -4 70 -15.5t49 -36.5l-37 -36q-44 47 -111 47q-59 0 -100 -41q-45 -45 -51 -105q-9 -61 -9 -268v-57h156v-41h-156v-355v-98v-258h-133v258v453h-141z" />
<glyph unicode="g" horiz-adv-x="1077" d="M176 -289h72q0 -25 6.5 -50t28.5 -55.5t56.5 -53.5t97 -38.5t143.5 -15.5q142 0 219 56q80 59 80 145v8q0 20 -0.5 32t-6 35.5t-16.5 38.5t-33 34t-53.5 30t-81.5 19t-113 8q-73 0 -101.5 0.5t-75.5 2.5t-71.5 8.5t-39.5 16.5q-62 44 -62 107q0 125 176 160 q-90 54 -137 123q-47 71 -47 155q0 121 96 205q95 86 226 86q81 0 165.5 -37.5t116.5 -89.5q51 -82 51 -168q0 -115 -84 -205t-278 -96q-186 -5 -211 -80q-4 -15 -4 -27q0 -41 53 -51q60 -13 237 -17.5t201 -10.5q90 -22 138 -88q51 -63 51 -156q0 -128 -105 -205 q-103 -78 -299 -78q-178 0 -288 70q-107 67 -107 174v8zM362 455q0 -125 52 -183q42 -47 131 -47q83 0 125 47q53 59 53 199q0 146 -57 197q-43 43 -125 43q-97 0 -133 -56q-46 -64 -46 -200z" />
<glyph unicode="h" horiz-adv-x="1054" d="M184 0v258v750v256h95q8 -3 16 0h20v-635q55 77 123 114q65 39 150 39q97 0 153 -39q62 -38 80 -94q19 -59 19 -184v-207v-258h-131v258v225q0 83 -11 140q-12 48 -53 73q-42 31 -102 31q-72 0 -127 -43q-55 -38 -101 -125v-301v-258h-131z" />
<glyph unicode="i" horiz-adv-x="602" d="M199 1126q0 39 26 68q32 29 68 29q38 0 67 -29q29 -32 29 -68q0 -40 -29 -69t-67 -29q-36 0 -68 29q-26 26 -26 69zM227 0v258v227v13v284h111h20v-391v-133v-258h-131z" />
<glyph unicode="j" horiz-adv-x="892" d="M264 -446l12 40q13 -10 97 -10q55 0 100 39q46 37 55 98q11 72 11 191v577v295h110h21v-804q0 -106 -11 -185q-9 -62 -47 -121q-42 -60 -108 -94q-66 -35 -158 -35q-44 0 -82 9zM506 1126q0 39 26 68q27 27 68 27t68 -27q26 -29 26 -68q0 -41 -28 -69q-29 -29 -66 -29 q-40 0 -68 31q-26 26 -26 67z" />
<glyph unicode="k" horiz-adv-x="1034" d="M176 0v258v829v70h111h2h20v-739l459 334h63l-382 -281l403 -471h-164l-340 395l-39 -28v-109v-258h-133z" />
<glyph unicode="l" horiz-adv-x="569" d="M205 0v258v743v263h108q0 -4 4 0h21v-1006v-258h-133z" />
<glyph unicode="m" horiz-adv-x="1626" d="M203 0v258v225v299h131v-157q58 75 133 118q68 39 154 39q94 0 149 -43q57 -40 82 -125q75 87 143 125q73 43 150 43q85 0 147 -41t74 -92q12 -50 12 -166v-225v-258h-131v258v250q0 82 -8 115q-9 41 -45 67q-38 27 -96 27q-63 0 -121 -41q-61 -42 -119 -121v-297v-258 h-133v258v209q0 102 -8 143q-6 46 -47 76q-39 33 -99 33q-55 0 -116 -37q-61 -39 -121 -111v-313v-258h-131z" />
<glyph unicode="n" horiz-adv-x="1103" d="M203 0v258v225v299h131v-157q58 75 133 118q68 39 154 39q94 0 149 -43q74 -51 82 -125q6 -14 6 -59v-297v-258h-133v258v209q0 102 -8 143q-6 46 -47 76q-39 33 -99 33q-55 0 -116 -37q-61 -39 -121 -111v-313v-258h-131z" />
<glyph unicode="o" horiz-adv-x="1140" d="M186 367q0 169 107 282q104 113 262 113t262 -113q107 -116 107 -282q0 -186 -107 -293q-110 -107 -262 -107q-150 0 -262 109q-107 107 -107 291zM317 362q0 -187 70 -274q59 -80 168 -80q111 0 170 80q68 89 68 274q0 181 -68 277q-58 82 -170 82t-170 -82 q-68 -96 -68 -277z" />
<glyph unicode="p" horiz-adv-x="1142" d="M178 -246v672v299h129v-123q60 63 125 92q70 31 139 31q153 0 256 -109t103 -284q0 -174 -103 -289q-102 -117 -270 -117q-67 0 -131 27q-61 27 -119 82v-281v-254h-129v254zM307 94q52 -61 105 -90q57 -31 114 -31q100 0 179 88q75 90 75 279q0 169 -73 248 q-75 84 -175 84q-54 0 -118 -33q-52 -28 -107 -96v-449z" />
<glyph unicode="q" horiz-adv-x="1173" d="M178 332q0 175 103 284t256 109q72 0 139 -31q65 -29 125 -92v123h129v-299v-672v-254h-129v254v281q-53 -53 -119 -82q-62 -27 -131 -27q-165 0 -270 117q-103 115 -103 289zM330 340q0 -191 76 -279t176 -88q60 0 114 31q53 29 105 90v449q-55 68 -107 96 q-61 33 -119 33q-99 0 -174 -84q-71 -77 -71 -248z" />
<glyph unicode="r" horiz-adv-x="813" d="M186 0v258v213v311h123v-194q16 56 52 98.5t79 61.5q44 20 92 22q5 0 9 -1q43 0 80 -21l-27 -54q-34 22 -66 24.5t-60.5 -11t-61.5 -43.5q-56 -50 -72 -113q-15 -59 -15 -160v-133v-258h-133z" />
<glyph unicode="s" horiz-adv-x="837" d="M178 74v2l4 2zM195 86l32 20q44 -80 133 -98q18 -3 34 -3q44 0 73 24q41 33 51 82q3 16 3 31q0 37 -19 69q-24 39 -123 115q-94 70 -135 137q-27 42 -27 93q0 20 4 42q12 68 78 125q46 42 110 42q22 0 46 -5q88 -18 135 -98l-33 -23q-41 69 -108 80q-16 4 -31 4 q-33 0 -60 -18q-40 -27 -49 -70q-2 -9 -1 -19q0 -34 22 -71q33 -44 119 -107q135 -95 157 -168q12 -48 12 -88q0 -23 -4 -43q-18 -94 -92 -141q-54 -34 -117 -34q-24 0 -51 5q-96 20 -159 117z" />
<glyph unicode="t" horiz-adv-x="868" d="M186 692v41h107v230h129v-230h221v-41h-221v-444q0 -106 8 -139q10 -38 39 -58q26 -20 61 -20q67 0 113 73l29 -18q-27 -58 -82 -88q-57 -31 -111 -31q-64 0 -112 39q-50 38 -62 88q-12 52 -12 180v418h-107z" />
<glyph unicode="u" horiz-adv-x="1097" d="M201 229v252v252h129v-510q0 -64 8 -110q9 -36 47 -60q37 -24 86 -24q69 0 131 45q62 44 86 96q23 54 23 143v168v252h129v-483v-260h-129v149q-56 -87 -125 -129q-70 -43 -156 -43q-72 0 -131 35q-59 36 -78 82q-20 44 -20 145z" />
<glyph unicode="v" horiz-adv-x="1079" d="M162 733h141l281 -627l272 627h41l-338 -766h-51z" />
<glyph unicode="w" horiz-adv-x="1636" d="M195 735h139l280 -629l222 506h73l226 -506l274 629h41l-338 -766h-51l-238 525l-231 -525h-53z" />
<glyph unicode="x" horiz-adv-x="1167" d="M195 752h167l236 -295l256 295h64l-295 -324l346 -428h-168l-262 326l-279 -326h-63l317 358z" />
<glyph unicode="y" horiz-adv-x="1054" d="M147 698h140l276 -620l271 620h40l-538 -1218h-37l197 448z" />
<glyph unicode="z" horiz-adv-x="1019" d="M154 0v29l499 682h-469v41h633v-33l-495 -676h491v-43h-659z" />
<glyph unicode="{" />
<glyph unicode="|" />
<glyph unicode="}" />
<glyph unicode="~" />
<glyph horiz-adv-x="540" />
<glyph unicode="&#xa0;" />
<glyph unicode="&#xa1;" />
<glyph unicode="&#xa2;" />
<glyph unicode="&#xa3;" />
<glyph unicode="&#xa5;" />
<glyph unicode="&#xa6;" />
<glyph unicode="&#xa7;" />
<glyph unicode="&#xa8;" />
<glyph unicode="&#xa9;" />
<glyph unicode="&#xaa;" />
<glyph unicode="&#xab;" />
<glyph unicode="&#xac;" />
<glyph unicode="&#xad;" horiz-adv-x="913" d="M205 356v136h467v-136h-467z" />
<glyph unicode="&#xae;" />
<glyph unicode="&#xb0;" />
<glyph unicode="&#xb1;" />
<glyph unicode="&#xb2;" />
<glyph unicode="&#xb3;" />
<glyph unicode="&#xb4;" />
<glyph unicode="&#xb5;" />
<glyph unicode="&#xb6;" />
<glyph unicode="&#xb7;" horiz-adv-x="540" />
<glyph unicode="&#xb9;" />
<glyph unicode="&#xba;" />
<glyph unicode="&#xbb;" />
<glyph unicode="&#xbc;" />
<glyph unicode="&#xbd;" />
<glyph unicode="&#xbe;" />
<glyph unicode="&#xbf;" />
<glyph unicode="&#xc0;" horiz-adv-x="1193" d="M0 0l610 1475h41l627 -1475h-229l-111 270l-113 271h-540l-209 -541h-76zM299 590h510l-258 618zM432 1802h105l125 -164h-82z" />
<glyph unicode="&#xc1;" horiz-adv-x="1193" d="M0 0h76l209 541h540l113 -271q33 -80 111 -270h229l-627 1475h-41zM299 590l252 618l258 -618h-510zM598 1638l125 164h104l-147 -164h-82z" />
<glyph unicode="&#xc2;" horiz-adv-x="540" />
<glyph unicode="&#xc3;" horiz-adv-x="540" />
<glyph unicode="&#xc4;" />
<glyph unicode="&#xc5;" />
<glyph unicode="&#xc6;" />
<glyph unicode="&#xc7;" />
<glyph unicode="&#xc8;" horiz-adv-x="1120" d="M0 0h856v51h-450h-193v328v102v56v32v181h154h270v51h-277h-147v264v43v317h197h450v50h-860v-365v-541v-88v-102v-379zM299 1802h104l125 -164h-82z" />
<glyph unicode="&#xc9;" horiz-adv-x="1120" d="M0 0v379v102v88v541v365h860v-50h-450h-197v-317v-43v-264h147h277v-51h-270h-154v-181v-32v-56v-102v-328h193h450v-51h-856zM408 1638l124 164h105l-148 -164h-81z" />
<glyph unicode="&#xca;" horiz-adv-x="540" />
<glyph unicode="&#xcb;" horiz-adv-x="540" />
<glyph unicode="&#xcc;" horiz-adv-x="540" />
<glyph unicode="&#xcd;" horiz-adv-x="540" />
<glyph unicode="&#xce;" horiz-adv-x="540" />
<glyph unicode="&#xcf;" horiz-adv-x="540" />
<glyph unicode="&#xd0;" />
<glyph unicode="&#xd1;" />
<glyph unicode="&#xd2;" horiz-adv-x="1800" d="M0 748q0 328 221 528q113 104 227 151.5t273 47.5q161 0 275.5 -47t232.5 -150q223 -195 223 -539q0 -330 -213 -534q-112 -107 -229 -156t-285 -49q-163 0 -279 49t-229 156q-217 202 -217 543zM240 739q0 -339 137 -514q73 -91 152.5 -131.5t209.5 -40.5 q117 0 201 41.5t156 130.5q65 81 89.5 204t24.5 308q0 180 -24 302.5t-88 205.5q-70 91 -158.5 133.5t-216.5 42.5q-123 0 -197.5 -40t-148.5 -132q-137 -175 -137 -510zM557 1802h105l124 -164h-81z" />
<glyph unicode="&#xd3;" horiz-adv-x="1800" d="M0 748q0 -341 217 -543q113 -107 229 -156t279 -49q168 0 285 49t229 156q213 204 213 534q0 344 -223 539q-118 103 -232.5 150t-275.5 47q-159 0 -273 -47.5t-227 -151.5q-221 -200 -221 -528zM240 739q0 335 137 510q74 92 148.5 132t197.5 40q128 0 216.5 -42.5 t158.5 -133.5q64 -83 88 -205.5t24 -302.5q0 -185 -24.5 -308t-89.5 -204q-72 -89 -156 -130.5t-201 -41.5q-130 0 -209.5 40.5t-152.5 131.5q-137 175 -137 514zM700 1638l125 164h105l-148 -164h-82z" />
<glyph unicode="&#xd4;" horiz-adv-x="540" />
<glyph unicode="&#xd5;" horiz-adv-x="540" />
<glyph unicode="&#xd6;" />
<glyph unicode="&#xd7;" />
<glyph unicode="&#xd8;" />
<glyph unicode="&#xd9;" horiz-adv-x="1531" d="M0 518q-11 -165 53 -280q59 -106 191 -172q138 -66 327 -66q170 0 289 51q126 52 197 139q76 97 90 177q22 134 22 276v485v347h-49v-328v-496q0 -78 -20 -248q-10 -68 -70 -155q-56 -74 -166 -123q-105 -51 -243 -51q-172 0 -273 76q-93 67 -115 174q-14 68 -14 338v458 v355h-209v-355v-452zM518 1802h105l125 -164h-82z" />
<glyph unicode="&#xda;" horiz-adv-x="1531" d="M0 518l10 150v452v355h209v-355v-458q0 -270 14 -338q22 -107 115 -174q101 -76 273 -76q138 0 243 51q110 49 166 123q60 87 70 155q20 170 20 248v496v328h49v-347v-485q0 -142 -22 -276q-14 -80 -90 -177q-71 -87 -197 -139q-119 -51 -289 -51q-189 0 -327 66 q-132 66 -191 172q-64 115 -53 280zM598 1638l125 164h104l-147 -164h-82z" />
<glyph unicode="&#xdb;" horiz-adv-x="540" />
<glyph unicode="&#xdc;" />
<glyph unicode="&#xdd;" />
<glyph unicode="&#xde;" />
<glyph unicode="&#xdf;" />
<glyph unicode="&#xe0;" horiz-adv-x="1298" d="M352 154q0 -53 51.5 -113.5t114.5 -60.5q64 0 135 32q70 29 164 97v-99v-30h131v231v299q0 97 -20 141q-20 45 -84 82q-61 37 -178 37q-121 0 -205 -53q15 -15 31 -29q59 41 155 41q69 0 109 -27q42 -26 51 -61q10 -29 10 -111v-36l-139 -58q-162 -66 -252 -135 q-44 -34 -59 -65.5t-15 -81.5zM485 172q0 146 234 240l98 39v-293q-69 -57 -125 -84q-60 -29 -98 -29q-51 0 -78 35q-31 36 -31 92zM543 1114h104l125 -164h-82z" />
<glyph unicode="&#xe1;" horiz-adv-x="1300" d="M352 154q0 50 15 81.5t59 65.5q90 69 252 135l139 58v36q0 82 -10 111q-9 35 -51 61q-40 27 -109 27q-96 0 -155 -41q-16 14 -31 29q84 53 205 53q117 0 178 -37q64 -37 84 -82q20 -44 20 -141v-299v-231h-131v30v99q-94 -68 -164 -97q-71 -32 -135 -32 q-63 0 -114.5 60.5t-51.5 113.5zM485 172q0 -56 31 -92q27 -35 78 -35q38 0 98 29q56 27 125 84v293l-98 -39q-234 -94 -234 -240zM625 950l125 164h104l-147 -164h-82z" />
<glyph unicode="&#xe2;" horiz-adv-x="540" />
<glyph unicode="&#xe3;" horiz-adv-x="540" />
<glyph unicode="&#xe4;" horiz-adv-x="540" />
<glyph unicode="&#xe5;" horiz-adv-x="540" />
<glyph unicode="&#xe6;" />
<glyph unicode="&#xe7;" horiz-adv-x="540" />
<glyph unicode="&#xe8;" horiz-adv-x="1026" d="M436 356q0 -123 53 -209q50 -81 136 -133q83 -47 178 -47q99 0 184 51q50 30 80 74l-31 31q-70 -107 -209 -107q-119 0 -182 97q-59 100 -59 293q0 42 4 77h502q0 111 -74 191q-76 88 -223 88q-153 0 -256 -115q-103 -118 -103 -291zM592 520q17 102 65 152.5t131 50.5 q45 0 81.5 -17.5t57 -42t34 -54.5t18 -52t4.5 -37h-391zM645 1114h105l124 -164h-81z" />
<glyph unicode="&#xe9;" horiz-adv-x="1028" d="M436 356q0 173 103 291q103 115 256 115q147 0 223 -88q74 -80 74 -191h-502q-4 -35 -4 -77q0 -193 59 -293q63 -97 182 -97q139 0 209 107l31 -31q-30 -44 -80 -74q-85 -51 -184 -51q-95 0 -178 47q-86 52 -136 133q-53 86 -53 209zM592 520h391q0 15 -4.5 37t-18 52 t-34 54.5t-57 42t-81.5 17.5q-83 0 -131 -50.5t-65 -152.5zM748 950l124 164h105l-148 -164h-81z" />
<glyph unicode="&#xea;" horiz-adv-x="540" />
<glyph unicode="&#xeb;" horiz-adv-x="540" />
<glyph unicode="&#xec;" horiz-adv-x="913" d="M303 1116l131 -2l92 -164h-94zM418 0v258v133v391h18h113v-284v-13v-227v-258h-131z" />
<glyph unicode="&#xed;" horiz-adv-x="958" d="M369 0v258v227v13v284h110h21v-391v-133v-258h-131zM389 950l92 164l131 2l-129 -166h-94z" />
<glyph unicode="&#xee;" horiz-adv-x="540" />
<glyph unicode="&#xef;" horiz-adv-x="540" />
<glyph unicode="&#xf0;" />
<glyph unicode="&#xf1;" horiz-adv-x="540" />
<glyph unicode="&#xf2;" horiz-adv-x="1087" d="M367 367q0 170 106 282q107 113 262 113q157 0 264 -113q107 -119 107 -282q0 -184 -109 -293q-110 -107 -262 -107q-151 0 -260 109q-108 105 -108 291zM498 362q0 -188 69 -274q59 -80 168 -80q111 0 170 80q68 89 68 274q0 181 -68 277q-58 82 -170 82t-170 -82 q-67 -94 -67 -277zM588 1114h104l125 -164h-82z" />
<glyph unicode="&#xf3;" horiz-adv-x="1087" d="M367 367q0 -186 108 -291q109 -109 260 -109q152 0 262 107q109 109 109 293q0 163 -107 282q-107 113 -264 113q-155 0 -262 -113q-106 -112 -106 -282zM498 362q0 183 67 277q58 82 170 82t170 -82q68 -96 68 -277q0 -185 -68 -274q-59 -80 -170 -80q-109 0 -168 80 q-69 86 -69 274zM670 950l125 164h104l-147 -164h-82z" />
<glyph unicode="&#xf4;" horiz-adv-x="540" />
<glyph unicode="&#xf5;" horiz-adv-x="540" />
<glyph unicode="&#xf6;" horiz-adv-x="540" />
<glyph unicode="&#xf7;" horiz-adv-x="540" />
<glyph unicode="&#xf8;" />
<glyph unicode="&#xf9;" horiz-adv-x="1398" d="M418 229v252v252h129v-510q0 -72 10 -110q10 -37 45 -60q38 -24 86 -24q71 0 131 45q65 44 86 96q23 47 23 143v168v252h129v-483v-260h-129v149q-56 -87 -125 -129q-70 -43 -156 -43q-72 0 -131 35q-59 36 -78 82q-20 52 -20 145zM567 1114h105l125 -164h-82z" />
<glyph unicode="&#xfa;" horiz-adv-x="1400" d="M418 229q0 -93 20 -145q19 -46 78 -82q59 -35 131 -35q86 0 156 43q69 42 125 129v-149h129v260v483h-129v-252v-168q0 -96 -23 -143q-21 -52 -86 -96q-60 -45 -131 -45q-48 0 -86 24q-35 23 -45 60q-10 38 -10 110v510h-129v-252v-252zM670 950l125 164h104l-147 -164 h-82z" />
<glyph unicode="&#xfb;" />
<glyph unicode="&#xfc;" />
<glyph unicode="&#xfd;" />
<glyph unicode="&#xfe;" />
<glyph unicode="&#xff;" horiz-adv-x="540" />
<glyph unicode="&#x152;" horiz-adv-x="540" />
<glyph unicode="&#x153;" horiz-adv-x="540" />
<glyph unicode="&#x178;" horiz-adv-x="540" />
<glyph unicode="&#x2000;" horiz-adv-x="901" />
<glyph unicode="&#x2001;" horiz-adv-x="1802" />
<glyph unicode="&#x2002;" horiz-adv-x="901" />
<glyph unicode="&#x2003;" horiz-adv-x="1802" />
<glyph unicode="&#x2004;" horiz-adv-x="600" />
<glyph unicode="&#x2005;" horiz-adv-x="450" />
<glyph unicode="&#x2006;" horiz-adv-x="300" />
<glyph unicode="&#x2007;" horiz-adv-x="300" />
<glyph unicode="&#x2008;" horiz-adv-x="225" />
<glyph unicode="&#x2009;" horiz-adv-x="360" />
<glyph unicode="&#x200a;" horiz-adv-x="100" />
<glyph unicode="&#x2010;" horiz-adv-x="913" d="M205 356v136h467v-136h-467z" />
<glyph unicode="&#x2011;" horiz-adv-x="913" d="M205 356v136h467v-136h-467z" />
<glyph unicode="&#x2012;" horiz-adv-x="913" d="M205 356v136h467v-136h-467z" />
<glyph unicode="&#x2013;" horiz-adv-x="540" />
<glyph unicode="&#x2014;" horiz-adv-x="540" />
<glyph unicode="&#x2018;" horiz-adv-x="466" d="M178 836l191 614h131l-248 -614h-74z" />
<glyph unicode="&#x2019;" horiz-adv-x="466" d="M178 836l191 614h131l-248 -614h-74z" />
<glyph unicode="&#x201a;" horiz-adv-x="540" />
<glyph unicode="&#x201c;" horiz-adv-x="1232" d="M178 836l191 614h131l-248 -614h-74zM692 836l191 614h131l-248 -614h-74z" />
<glyph unicode="&#x201d;" horiz-adv-x="1232" d="M178 836l191 614h131l-248 -614h-74zM692 836l191 614h131l-248 -614h-74z" />
<glyph unicode="&#x201e;" horiz-adv-x="540" />
<glyph unicode="&#x2022;" />
<glyph unicode="&#x2026;" />
<glyph unicode="&#x202f;" horiz-adv-x="360" />
<glyph unicode="&#x2039;" horiz-adv-x="540" />
<glyph unicode="&#x203a;" horiz-adv-x="540" />
<glyph unicode="&#x205f;" horiz-adv-x="450" />
<glyph unicode="&#x20ac;" horiz-adv-x="540" />
<glyph unicode="&#x2122;" />
<glyph unicode="&#x25fc;" horiz-adv-x="747" d="M0 0v748h748v-748h-748z" />
<glyph unicode="&#xfb01;" horiz-adv-x="540" />
<glyph unicode="&#xfb02;" horiz-adv-x="540" />
</font>
</defs>
</svg>
